<?xml version="1.0" encoding="utf-8"?>
<!-- Generator: Adobe Illustrator 16.0.0, SVG Export Plug-In . SVG Version: 6.00 Build 0)  -->
<!DOCTYPE svg PUBLIC "-//W3C//DTD SVG 1.1//EN" "http://www.w3.org/Graphics/SVG/1.1/DTD/svg11.dtd">
<svg version="1.1" id="图层_1" xmlns="http://www.w3.org/2000/svg" xmlns:xlink="http://www.w3.org/1999/xlink" x="0px" y="0px"
	 width="47.667px" height="44.333px" viewBox="0 0 47.667 44.333" enable-background="new 0 0 47.667 44.333" xml:space="preserve">
<path fill-rule="evenodd" clip-rule="evenodd" fill="#E84448" d="M36.539,23.226c-4.917-0.403-4.087,0.103-10.318-1.29
	c-1.314-0.09-1.803-1.443-2.886-1.888c0.946-6.231,2.664-7.757,8.045-7.141c3.527,0.69,7.818-2.121,9.613,4.587
	C42.516,23.19,41.011,23.604,36.539,23.226z"/>
<path fill-rule="evenodd" clip-rule="evenodd" fill="#E55096" d="M29.536,33.932c-2.108-4.458-2.132-3.486-4.041-9.58
	c-0.579-1.184,0.349-2.282,0.191-3.442c5.87-2.296,8.05-1.573,10.208,3.397c1.165,3.398,5.745,5.709,0.832,10.618
	C32.557,39.09,31.444,37.994,29.536,33.932z"/>
<path fill-rule="evenodd" clip-rule="evenodd" fill="#6C81BF" d="M16.511,32.661c2.808-4.056,1.953-3.59,6.276-8.291
	c0.735-1.093,2.151-0.839,3.077-1.554c4.924,3.935,5.388,6.184,2.161,10.537c-2.36,2.708-2.071,7.831-8.779,6.031
	C13.554,37.855,13.947,36.344,16.511,32.661z"/>
<path fill-rule="evenodd" clip-rule="evenodd" fill="#69C5E0" d="M11.129,20.855c4.916,0.403,4.086-0.103,10.318,1.29
	c1.314,0.09,1.802,1.443,2.884,1.888c-0.945,6.231-2.662,7.758-8.044,7.141c-3.526-0.69-7.818,2.121-9.613-4.587
	C5.152,20.892,6.657,20.476,11.129,20.855z"/>
<path fill-rule="evenodd" clip-rule="evenodd" fill="#C9DA51" d="M18.632,10.181c2.109,4.459,2.133,3.487,4.042,9.581
	c0.579,1.184-0.349,2.282-0.192,3.442c-5.869,2.296-8.05,1.572-10.206-3.397c-1.166-3.398-5.746-5.709-0.834-10.618
	C15.612,5.023,16.725,6.119,18.632,10.181z"/>
<path fill-rule="evenodd" clip-rule="evenodd" fill="#F1B74E" d="M31.397,11.58c-2.808,4.057-1.953,3.591-6.276,8.292
	c-0.735,1.094-2.151,0.839-3.077,1.555c-4.924-3.935-5.386-6.186-2.161-10.537c2.36-2.709,2.072-7.832,8.779-6.031
	C34.355,6.386,33.962,7.897,31.397,11.58z"/>
<path fill-rule="evenodd" clip-rule="evenodd" fill="#E84448" d="M36.539,23.226c-4.917-0.403-4.087,0.103-10.318-1.29
	c-1.314-0.09-1.803-1.443-2.886-1.888c0.946-6.231,2.664-7.757,8.045-7.141c3.527,0.69,7.818-2.121,9.613,4.587
	C42.516,23.19,41.011,23.604,36.539,23.226z"/>
</svg>
